# xmcd CD database file
#
# Track frame offsets:
#	180
#	23748
#	38267
#	49418
#	63621
#	76576
#	93228
#	109416
#	122887
#	133913
#	147503
#	165374
#	181605
#	195413
#
# Disc length: 2764 seconds
#
# Revision: 0
# Processed by: cddbd v1.5.2PL0 Copyright (c) Steve Scherf et al.
# Submitted via: CDex 1.70beta2
#
DISCID=b40aca0e
DTITLE=Charlie Parker - Great Master [CD2 of 10)
DYEAR=1900
DGENRE=Jazz
TTITLE0=A Night In Tunisia (1947)
TTITLE1=Begin The Beguine (1952) 
TTITLE2=Buzzy (1947)
TTITLE3=Cool Blues (1947)
TTITLE4=Dream Of You (1945)
TTITLE5=Get Happy (1945)
TTITLE6=I'm In The Mood For Love (1950)
TTITLE7=Laura (1950)
TTITLE8=Merry Go Round (1948)
TTITLE9=Ornthologiy (1946)
TTITLE10=Relaxin' With Lee (1950)
TTITLE11=Star Eyes (1951)
TTITLE12=The Gipsy (1946)
TTITLE13=Victory Ball (1949)
EXTD=
EXTT0=
EXTT1=
EXTT2=
EXTT3=
EXTT4=
EXTT5=
EXTT6=
EXTT7=
EXTT8=
EXTT9=
EXTT10=
EXTT11=
EXTT12=
EXTT13=
PLAYORDER=
